<svg width="683" height="511" viewBox="0 0 683 511" fill="none" xmlns="http://www.w3.org/2000/svg">
<path d="M565.067 1.99993C542.933 5.73327 526.133 14.3999 509.867 30.6666C494.667 45.7333 486.533 59.9999 481.333 80.2666L479.867 85.9999H348H216.133L214.133 88.9333C211.2 93.0666 211.467 100.133 214.667 103.333C217.333 106 219.067 106 347.867 106H478.4L479.333 113.6C483.467 148.4 503.333 177.733 533.467 193.333C559.467 206.8 586.8 208.4 618.4 198.667L621.333 197.733V281.733C621.333 341.467 621.733 366.8 622.8 369.2C625.067 374 630.933 376.133 636 374C638.267 373.067 640.667 371.2 641.333 369.867C642.133 368.4 642.667 332.133 642.667 276.133V184.8L648.133 180.4C662 169.2 675.067 148 680 128.133C683.6 113.733 683.6 91.5999 680 77.5999C670.133 38.7999 638.533 9.59993 599.333 2.6666C586.933 0.533265 575.333 0.266598 565.067 1.99993ZM596.667 23.9999C627.467 30.3999 653.6 55.9999 660.133 86.1333C662.4 97.0666 661.067 119.2 657.333 129.6C649.2 152.933 628.8 172.533 604.8 180.133C570.4 190.933 532 176.533 512.8 145.6C504 131.333 500.667 119.2 500.8 102C501.067 80 507.733 63.7333 523.067 47.7333C543.067 26.7999 569.467 18.2666 596.667 23.9999Z" fill="#00425F"/>
<path d="M622.667 61.5998C621.6 61.9998 608 74.9331 592.4 90.3998C576.8 105.866 563.867 118.266 563.6 118C563.2 117.6 558.4 109.866 552.667 100.666C547.067 91.4665 541.467 83.1998 540.267 82.2665C539.067 81.4665 535.867 80.6665 533.2 80.6665C526.8 80.6665 522 85.9998 523.2 91.7331C524.267 96.9331 552.267 142.133 556.4 145.2C562.8 150 565.333 148.133 602.4 110.933C633.067 80.2665 637.333 75.3331 637.333 71.7331C637.333 69.4665 636.267 66.3998 635.067 64.7998C632.533 61.8665 626.133 60.2665 622.667 61.5998Z" fill="#00425F"/>
<path d="M38 88.5333C23.6 93.7333 11.4666 104.667 4.53329 118.667L0.666626 126.667V297.333V468L5.06663 477.067C13.0666 493.2 27.8666 504.8 45.0666 508.533C54.4 510.533 585.6 510.667 596 508.667C617.467 504.533 635.2 488.133 640.8 466.8C642 462.133 642.667 451.6 642.667 433.2C642.667 406.933 642.667 406.4 639.6 403.6C635.067 399.333 627.733 399.6 624.133 404.133C621.467 407.467 621.333 409.467 621.333 432.667C621.333 462.933 620.267 467.333 610 477.6C597.733 489.733 624.8 488.8 318.667 488.4L48.6666 488L42.5333 485.2C34.8 481.6 28 474.8 23.8666 466.533L20.6666 460V298.667C20.6666 143.2 20.8 137.067 23.2 130.8C26.5333 122 34.4 113.733 43.0666 109.867L50 106.667L115.467 106.267C179.067 105.867 181.067 105.733 183.467 103.2C186.533 99.7333 186.533 92.2666 183.333 88.6666C180.933 85.9999 179.867 85.9999 112.8 85.9999C50.4 86.1333 44.1333 86.2666 38 88.5333Z" fill="#00425F"/>
<path d="M88.1333 147.6C84.4 149.467 80.9333 152.533 78.5333 156.533L74.6666 162.533V214.933C74.6666 256 75.0666 268.4 76.5333 271.733C78.6666 276.933 86.6666 284.267 91.7333 285.6C96.4 286.933 218.267 286.933 222.933 285.6C228 284.267 236 276.933 238.133 271.733C239.6 268.4 240 256 240 215.333C240 165.733 239.867 162.933 237.333 158C235.867 155.067 232.133 151.067 229.067 149.067L223.467 145.333L158.8 144.933C94.5333 144.667 94 144.667 88.1333 147.6ZM146.667 216V266H122.933C106.267 266 98.6666 265.467 97.6 264.4C95.2 262 95.3333 167.867 97.7333 166.933C98.5333 166.533 110 166.133 123.067 166.133L146.667 166V216ZM216.533 166.8C218.4 167.467 218.667 170.533 218.667 186.133V204.667H193.333H168V185.333V166H191.2C204 166 215.333 166.4 216.533 166.8ZM218.667 244.4C218.667 256.933 218.133 263.333 217.067 264.4C216 265.467 208.4 266 191.733 266H168V246V226H193.333H218.667V244.4Z" fill="#00425F"/>
<path d="M456.133 226.4C453.6 227.333 450.267 229.733 448.8 231.733C446.267 235.2 446 237.333 446 256C446 274.667 446.267 276.8 448.8 280.267C450.267 282.267 453.6 284.667 456.133 285.6C461.867 287.6 560.933 288 568.133 286C570.667 285.2 574.267 283.067 576.133 281.2C579.2 277.867 579.333 277.2 579.333 256C579.333 234.8 579.2 234.133 576.133 230.8C574.267 228.933 570.667 226.8 568.133 226C560.933 224 461.867 224.4 456.133 226.4ZM558.667 256V266H512.667H466.667V256V246H512.667H558.667V256Z" fill="#00425F"/>
<path d="M77.6 322.4C74.9333 325.2 74.6666 326.933 74.6666 342.267C74.6666 358.933 74.6666 359.2 78.1333 361.867C84.8 367.067 93.3333 364.267 95.4666 356.133C95.8666 354.267 96 346.4 95.7333 338.667C95.3333 325.6 95.0666 324.267 92.1333 321.867C87.8666 318.4 81.2 318.533 77.6 322.4Z" fill="#00425F"/>
<path d="M123.333 322.667C120.133 325.733 120 326.667 120 342C120 357.333 120.133 358.267 123.333 361.333C125.333 363.467 128.133 364.667 130.667 364.667C133.2 364.667 136 363.467 138 361.333C141.2 358.267 141.333 357.333 141.333 342C141.333 326.667 141.2 325.733 138 322.667C136 320.533 133.2 319.333 130.667 319.333C128.133 319.333 125.333 320.533 123.333 322.667Z" fill="#00425F"/>
<path d="M169.2 321.867C166.133 324.267 166 325.2 166 342C166 358.8 166.133 359.733 169.2 362.133C173.2 365.467 178.8 365.333 183.2 361.867C186.667 359.2 186.667 358.933 186.667 342.133C186.667 326.133 186.533 324.933 183.6 322.267C179.733 318.667 173.333 318.533 169.2 321.867Z" fill="#00425F"/>
<path d="M246.933 320.266C243.067 321.733 241.333 328.533 241.333 342C241.333 355.466 242.4 359.733 246.533 362.933C249.733 365.466 255.2 364.933 259.2 361.866C262.667 359.2 262.667 358.933 262.667 342.133C262.667 326.133 262.533 324.933 259.6 322.266C256.667 319.466 251.067 318.533 246.933 320.266Z" fill="#00425F"/>
<path d="M290.933 322.4C288.267 325.2 288 326.933 288 342.267C288 358.933 288 359.2 291.467 361.867C298.133 367.067 306.667 364.267 308.8 356.133C309.2 354.267 309.333 346.4 309.067 338.667C308.667 325.6 308.4 324.267 305.467 321.867C301.2 318.4 294.533 318.533 290.933 322.4Z" fill="#00425F"/>
<path d="M336.133 322.8C333.6 326 333.333 328.133 333.333 342.267C333.333 357.333 333.467 358.267 336.667 361.333C338.667 363.467 341.467 364.667 344 364.667C346.533 364.667 349.333 363.467 351.333 361.333C354.533 358.267 354.667 357.333 354.667 342C354.667 326.667 354.533 325.733 351.333 322.667C346.8 318 339.867 318.133 336.133 322.8Z" fill="#00425F"/>
<path d="M382.533 321.867C379.467 324.267 379.333 325.2 379.333 342C379.333 358.8 379.467 359.733 382.533 362.133C386.533 365.467 392.133 365.333 396.533 361.867C400 359.2 400 358.933 400 342.133C400 326.133 399.867 324.933 396.933 322.267C393.067 318.667 386.667 318.533 382.533 321.867Z" fill="#00425F"/>
<path d="M458.533 321.867C455.6 324.267 455.333 325.6 454.933 338.667C454.667 346.4 454.8 354.267 455.2 356.133C457.333 364.267 465.867 367.067 472.533 361.867C476 359.2 476 358.933 476 342.133C476 326.133 475.867 324.933 472.933 322.267C469.067 318.667 462.667 318.533 458.533 321.867Z" fill="#00425F"/>
<path d="M504.267 322.4C501.6 325.2 501.333 326.933 501.333 342.267C501.333 358.933 501.333 359.2 504.8 361.867C510.8 366.533 517.6 365.067 521.067 358.4C523.467 354.133 523.067 329.467 520.667 324.8C517.467 318.4 509.067 317.2 504.267 322.4Z" fill="#00425F"/>
<path d="M549.467 322.8C546.933 326 546.667 328.133 546.667 342.267C546.667 357.333 546.8 358.267 550 361.333C552 363.467 554.8 364.667 557.333 364.667C559.867 364.667 562.667 363.467 564.667 361.333C567.867 358.267 568 357.333 568 342C568 326.667 567.867 325.733 564.667 322.667C560.133 318 553.2 318.133 549.467 322.8Z" fill="#00425F"/>
<path d="M77.6 394C73.2 398.133 73.6 406.267 78.1333 409.867C81.7333 412.667 82 412.667 232 412.667C382 412.667 382.267 412.667 385.867 409.867C390.267 406.4 390.8 398.133 386.667 394C384 391.333 382.267 391.333 232.267 391.333C81.3333 391.333 80.5333 391.333 77.6 394Z" fill="#00425F"/>
<path d="M80.3999 430C74.3999 432.4 72.6666 442.667 77.3333 447.333C79.9999 450 81.7333 450 158.533 450H237.2L239.867 446.533C244.533 440.533 243.333 433.867 237.2 430.667C234 428.933 221.733 428.667 158.4 428.8C117.067 428.8 81.9999 429.333 80.3999 430Z" fill="#00425F"/>
</svg>
