<svg width="720" height="662" viewBox="0 0 720 662" fill="none" xmlns="http://www.w3.org/2000/svg">
<path d="M22.5337 2.53346C14.667 6.13346 8.00033 12.5335 4.13366 20.2668L0.666992 27.2001L0.666992 330.667L0.666992 634.133L4.13366 641.067C8.00033 648.8 14.667 655.2 22.5337 658.8C27.7337 661.2 35.467 661.333 192.8 661.333L357.467 661.333L364.4 657.867C372.134 654 378.534 647.333 382.134 639.467C384.534 634.267 384.667 622.8 384.667 330.667C384.667 38.5335 384.534 27.0668 382.134 21.8668C378.534 14.0001 372.134 7.33346 364.4 3.4668L357.467 0.000128269L192.8 0.000128269C35.467 0.000128269 27.7337 0.133462 22.5337 2.53346ZM124.667 41.2001C128 54.2668 130.4 60.9335 132 62.1335C135.734 64.8001 249.6 64.8001 253.334 62.1335C254.934 60.9335 257.334 54.2668 260.667 41.2001L265.6 22.0001H308.134C354.934 22.0001 354.934 22.0001 360.267 30.2668C362.534 33.7335 362.667 49.3335 362.667 330.667C362.667 612 362.534 627.6 360.267 631.067C359.067 633.067 356.4 635.733 354.4 636.933C350.934 639.2 341.467 639.333 192.667 639.333C43.867 639.333 34.4003 639.2 30.9337 636.933C28.9337 635.733 26.267 633.067 25.067 631.067C22.8003 627.6 22.667 611.733 22.267 335.333C22.0003 174.8 22.267 40.8001 22.667 37.7335C23.6003 30.8001 28.667 24.5335 34.4003 22.8001C36.8003 22.1335 56.9337 21.6001 79.2003 21.7335L119.734 22.0001L124.667 41.2001ZM242 22.2668C242 22.9335 240.8 27.4668 239.6 32.6668L237.2 42.0001L192.667 42.0001H148.134L145.734 32.6668C144.534 27.4668 143.334 22.9335 143.334 22.2668C143.334 21.7335 165.6 21.3335 192.667 21.3335C219.867 21.3335 242 21.7335 242 22.2668Z" fill="#00425F"/>
<path d="M142 610.667C140.267 612.4 139.333 615.067 139.333 618.667C139.333 622.267 140.267 624.933 142 626.667C144.533 629.2 146.4 629.333 192.667 629.333C238.934 629.333 240.8 629.2 243.334 626.667C245.067 624.933 246 622.267 246 618.667C246 615.067 245.067 612.4 243.334 610.667C240.8 608.133 238.934 608 192.667 608C146.4 608 144.533 608.133 142 610.667Z" fill="#00425F"/>
<rect x="257" y="117" width="457" height="127" rx="9" fill="white" stroke="#00425F" stroke-width="12"/>
<path d="M332 170L352.4 152.8L364 173.4L339.6 182L364 190.2L351.6 211.8L332 194.2L337 220H313.2L318 194.2L298.6 212L285.8 190L310.2 181.6L286 173.6L297.8 152.8L318.2 170L313 144H337.2L332 170Z" fill="#00425F"/>
<path d="M439 170L459.4 152.8L471 173.4L446.6 182L471 190.2L458.6 211.8L439 194.2L444 220H420.2L425 194.2L405.6 212L392.8 190L417.2 181.6L393 173.6L404.8 152.8L425.2 170L420 144H444.2L439 170Z" fill="#00425F"/>
<path d="M546 170L566.4 152.8L578 173.4L553.6 182L578 190.2L565.6 211.8L546 194.2L551 220H527.2L532 194.2L512.6 212L499.8 190L524.2 181.6L500 173.6L511.8 152.8L532.2 170L527 144H551.2L546 170Z" fill="#00425F"/>
<path d="M653 170L673.4 152.8L685 173.4L660.6 182L685 190.2L672.6 211.8L653 194.2L658 220H634.2L639 194.2L619.6 212L606.8 190L631.2 181.6L607 173.6L618.8 152.8L639.2 170L634 144H658.2L653 170Z" fill="#00425F"/>
</svg>
