<svg width="512" height="512" viewBox="0 0 512 512" fill="none" xmlns="http://www.w3.org/2000/svg">
<g clip-path="url(#clip0_516_3)">
<path d="M112.531 1C119.182 5.01027 123.014 9.96363 122.142 18.0804C121.391 25.0719 116.119 30.9848 109.046 30.991C83.2472 31.0137 57.4482 31 31 31C31 32.7217 31 34.3081 31 35.8945C31 59.5406 30.7139 83.192 31.1544 106.83C31.3096 115.158 26.4505 119.683 21.6975 121.674C15.2981 124.354 7.20574 121.456 3.15809 115.67C2.60795 114.883 2.17724 114.013 1.34562 113.091C1 78.9791 1 44.9582 1.34515 10.3782C4.4602 6.87934 7.2301 3.93967 10 1C44.0209 1 78.0418 1 112.531 1Z" fill="#00425F"/>
<path d="M513 112.531C508.99 119.182 504.036 123.014 495.92 122.142C488.928 121.391 483.015 116.119 483.009 109.046C482.986 83.2473 483 57.4483 483 31.0001C481.278 31.0001 479.692 31.0001 478.105 31.0001C454.459 31.0001 430.808 30.714 407.17 31.1545C398.842 31.3097 394.317 26.4507 392.326 21.6977C389.646 15.2982 392.544 7.20584 398.33 3.1582C399.117 2.60805 399.987 2.17735 400.909 1.34571C435.021 1.00008 469.042 1.00008 503.622 1.34522C507.121 4.46026 510.06 7.23017 513 10.0001C513 44.021 513 78.0419 513 112.531Z" fill="#00425F"/>
<path d="M401.469 513C394.818 508.99 390.986 504.036 391.858 495.92C392.609 488.928 397.881 483.015 404.954 483.009C430.753 482.986 456.552 483 483 483C483 481.278 483 479.692 483 478.106C483 454.46 483.286 430.808 482.846 407.17C482.69 398.842 487.549 394.317 492.302 392.327C498.702 389.646 506.794 392.545 510.842 398.33C511.392 399.117 511.823 399.987 512.654 400.909C513 435.021 513 469.042 512.655 503.622C509.54 507.121 506.77 510.06 504 513C469.979 513 435.958 513 401.469 513Z" fill="#00425F"/>
<path d="M1 401.469C5.01025 394.818 9.96362 390.986 18.0803 391.858C25.0719 392.609 30.9848 397.881 30.991 404.954C31.0137 430.753 31 456.552 31 483C32.7217 483 34.3081 483 35.8945 483C59.5405 483 83.1919 483.286 106.83 482.846C115.158 482.69 119.683 487.55 121.674 492.302C124.354 498.702 121.456 506.794 115.67 510.842C114.883 511.392 114.013 511.823 113.091 512.654C78.9791 513 44.9582 513 10.3782 512.655C6.87933 509.54 3.93967 506.77 1.00001 504C1 469.979 1 435.958 1 401.469Z" fill="#00425F"/>
<path d="M1.00001 504.491C3.93967 506.77 6.87933 509.54 9.90949 512.655C7.08265 513 4.1653 513 1 513C1 510.33 1 507.656 1.00001 504.491Z" fill="white"/>
<path d="M504.491 513C506.77 510.06 509.54 507.121 512.655 504.091C513 506.917 513 509.835 513 513C510.33 513 507.656 513 504.491 513Z" fill="white"/>
<path d="M513 9.50895C510.06 7.23009 507.121 4.46018 504.09 1.34514C506.917 1 509.835 1 513 1C513 3.67001 513 6.34395 513 9.50895Z" fill="white"/>
<path d="M9.50895 1C7.2301 3.93967 4.46019 6.87934 1.34515 9.9095C1 7.08264 1 4.16529 1 1C3.67001 1 6.34395 1 9.50895 1Z" fill="white"/>
<path d="M422 413C422 395.857 422 379.213 422 362.286C412.045 362.286 402.306 362.286 392 362.286C392 367.819 392.024 373.419 391.994 379.019C391.956 386.124 386.141 391.68 379.079 392.073C372.587 392.435 367.048 391.178 363.717 385.104C362.751 383.342 362.157 381.175 362.076 379.167C361.855 373.682 362 368.183 362 362C360.158 362 358.408 362 356.659 362C322.994 362 289.33 362.003 255.665 361.998C247.494 361.996 242.004 356.473 242.002 348.26C241.996 324.594 242 300.929 242 277.264C242 275.641 242 274.018 242 272C226.326 272 211.041 272.005 195.755 271.998C187.172 271.994 182.001 266.478 182 257.349C181.999 247.683 186.998 242.007 195.556 242.003C216.555 241.993 237.554 241.993 258.553 242.004C266.346 242.008 271.993 247.659 271.996 255.458C272.006 280.771 272 306.085 272 331.699C281.923 331.699 291.663 331.699 302 331.699C302 327.052 302 322.288 302 317.524C302 306.89 306.851 302.186 317.379 301.926C323.197 301.783 327.455 303.974 330.245 308.871C331.236 310.612 331.841 312.785 331.923 314.79C332.147 320.278 332 325.782 332 332C333.807 332 335.552 332 337.298 332C370.962 332 404.627 331.997 438.291 332.002C446.486 332.003 451.997 337.508 451.998 345.697C452.003 376.528 452.002 407.36 451.998 438.191C451.997 446.628 446.494 451.668 437.909 452.108C431.537 452.434 426.79 450.296 423.604 444.978C422.584 443.275 422.109 441.015 422.07 438.996C421.905 430.5 422 421.999 422 413Z" fill="#00425F"/>
<path d="M62 136C62 115.504 61.9934 95.5087 62.0033 75.513C62.0072 67.6492 67.5911 62.0057 75.3888 62.004C116.546 61.9952 157.704 61.9928 198.862 62.0064C206.316 62.0089 211.993 67.7489 211.995 75.2636C212.006 116.421 212.006 157.579 211.995 198.737C211.993 206.251 206.316 211.991 198.861 211.993C157.537 212.007 116.213 212.01 74.8884 211.99C67.8047 211.987 62.0161 206.127 62.0082 198.986C61.9851 178.157 62 157.329 62 136ZM120.5 182C140.928 182 161.356 182 181.714 182C181.714 151.691 181.714 121.955 181.714 92.2858C151.691 92.2858 121.955 92.2858 92.2859 92.2858C92.2859 122.309 92.2859 152.044 92.2859 182C101.547 182 110.523 182 120.5 182Z" fill="#00425F"/>
<path d="M452 93.0002C452 128.326 452.001 163.152 451.999 197.977C451.998 206.524 446.583 211.998 438.121 211.999C397.297 212.002 356.472 212.003 315.648 211.998C307.487 211.997 302.003 206.467 302.002 198.246C301.998 157.422 301.998 116.597 302.002 75.7727C302.003 67.5411 307.478 62.0036 315.629 62.0026C356.62 61.9971 397.611 61.9955 438.602 62.0041C446.396 62.0058 451.982 67.6542 451.998 75.5042C452.009 81.1695 452 86.8349 452 93.0002ZM332 151.5C332 161.597 332 171.695 332 181.713C362.312 181.713 392.048 181.713 421.713 181.713C421.713 151.688 421.713 121.952 421.713 92.2875C391.688 92.2875 361.952 92.2875 332 92.2875C332 111.883 332 131.191 332 151.5Z" fill="#00425F"/>
<path d="M212 422C212 427.665 212.003 432.831 211.999 437.996C211.994 446.521 206.565 451.998 198.102 451.999C157.278 452.002 116.453 452.003 75.6288 451.998C67.4778 451.996 62.0025 446.459 62.0018 438.227C61.9979 397.403 61.9978 356.578 62.0018 315.754C62.0026 307.533 67.4871 302.003 75.648 302.002C116.639 301.997 157.63 301.995 198.621 302.004C206.412 302.006 211.995 307.655 211.997 315.523C212.004 350.849 212 386.174 212 422ZM124.5 422C143.595 422 162.69 422 181.714 422C181.714 391.691 181.714 361.955 181.714 332.286C151.691 332.286 121.955 332.286 92.2861 332.286C92.2861 362.309 92.2861 392.045 92.2861 422C102.881 422 113.19 422 124.5 422Z" fill="#00425F"/>
<path d="M367.064 299.008C363.199 295.621 361.538 291.701 361.923 286.723C362.282 282.086 362 277.4 362 272.313C360.725 272.207 359.474 272.015 358.223 272.013C343.895 271.992 329.567 272.013 315.239 271.995C307.753 271.985 302.344 266.271 301.911 258.845C301.526 252.264 303.211 246.946 309.05 243.547C310.645 242.618 312.708 242.066 314.558 242.063C356.208 241.981 397.859 241.984 439.51 242.017C445.893 242.022 451.947 248.056 451.982 254.41C452.046 266.072 452.038 277.734 451.986 289.396C451.955 296.117 445.984 301.682 439.208 302.069C432.75 302.437 427.133 301.372 423.812 295.197C422.857 293.422 422.162 291.298 422.081 289.304C421.85 283.687 422 278.055 422 272.219C411.909 272.219 402.173 272.219 392 272.219C392 276.794 391.475 281.321 392.107 285.68C393.499 295.265 385.59 303.841 375.422 301.929C372.682 301.414 370.105 300.03 367.064 299.008Z" fill="#00425F"/>
<path d="M268.751 66.3536C269.98 70.3233 271.849 73.9648 271.868 77.6161C272.078 117.734 272.001 157.853 271.999 197.971C271.998 207.191 266.554 212.005 256.152 212C247.317 211.995 242.001 206.654 242.001 197.773C241.999 157.488 242.101 117.202 241.898 76.9181C241.866 70.4086 244.326 65.618 249.866 63.2291C255.127 60.9604 260.96 60.4397 266.079 64.5153C266.825 65.1096 267.711 65.5294 268.751 66.3536Z" fill="#00425F"/>
<path d="M242 423C242 417.001 241.997 411.502 242.001 406.003C242.006 396.942 247.445 391.999 257.4 392C266.498 392.001 271.99 397.191 271.999 405.803C272.004 410.966 272 416.128 272 421.689C273.303 421.795 274.557 421.985 275.812 421.987C290.143 422.008 304.474 421.986 318.805 422.006C326.25 422.016 331.698 427.77 332.079 435.204C332.404 441.538 331.119 446.875 325.251 450.125C323.491 451.1 321.357 451.909 319.389 451.921C297.726 452.047 276.063 452.031 254.4 451.981C248.049 451.966 242.083 445.886 242.012 439.497C241.953 434.165 242 428.832 242 423Z" fill="#00425F"/>
<path d="M152 253.463C152.607 260.581 151.726 266.711 145.122 270.269C143.349 271.224 141.182 271.916 139.192 271.927C117.693 272.044 96.1932 272.022 74.6935 271.987C67.9187 271.976 62.3231 266.056 61.9334 259.291C61.5622 252.846 62.6001 247.18 68.7633 243.889C70.8033 242.799 73.3173 242.095 75.6204 242.08C96.2858 241.943 116.953 241.999 137.619 242C145.409 242.001 149.508 245.146 152 253.463Z" fill="#00425F"/>
<path d="M364.693 427.746C368.606 422.501 376.087 420.002 382.375 422.197C387.307 423.918 392.267 429.708 392.219 435.744C392.163 442.636 390.363 448.18 384.048 450.824C378.403 453.187 372.441 453.147 367.014 449.053C361.389 444.809 359.953 434.447 364.693 427.746Z" fill="#00425F"/>
<path d="M120 182C110.523 182 101.547 182 92.2859 182C92.2859 152.045 92.2859 122.309 92.2859 92.2859C121.955 92.2859 151.691 92.2859 181.714 92.2859C181.714 121.955 181.714 151.691 181.714 182C161.356 182 140.928 182 120 182ZM129.178 150.708C134.404 150.695 140.182 152.102 144.727 150.336C151.438 147.728 154.076 138.499 151.853 131.463C149.997 125.588 144.188 122.457 136.638 121.873C128.911 121.274 123.731 127.102 122.194 131.735C119.876 138.72 122.827 146.346 129.178 150.708Z" fill="white"/>
<path d="M332 151C332 131.191 332 111.883 332 92.2874C361.952 92.2874 391.688 92.2874 421.713 92.2874C421.713 121.952 421.713 151.688 421.713 181.712C392.048 181.712 362.312 181.712 332 181.712C332 171.695 332 161.597 332 151ZM366.025 148.525C371.155 152.748 377.22 153.316 383.015 151.257C390.104 148.738 392.306 142.934 392.213 135.407C392.146 130.072 387.632 124.148 382.535 122.224C376.57 119.972 368.259 122.709 364.946 127.275C359.802 134.362 361.096 141.182 366.025 148.525Z" fill="white"/>
<path d="M124 422C113.19 422 102.881 422 92.2861 422C92.2861 392.045 92.2861 362.309 92.2861 332.286C121.955 332.286 151.691 332.286 181.714 332.286C181.714 361.955 181.714 391.691 181.714 422C162.69 422 143.595 422 124 422ZM129.182 363.287C127.784 364.559 126.246 365.709 125.013 367.125C120.645 372.14 120.896 378.107 123.054 383.62C125.531 389.949 130.806 392.305 137.805 392.158C144.152 392.025 148.558 389.267 150.837 383.985C152.961 379.061 153.325 373.55 150.052 368.606C145.235 361.33 139.448 360.735 129.182 363.287Z" fill="white"/>
<path d="M128.914 150.405C122.827 146.346 119.876 138.72 122.194 131.735C123.731 127.102 128.911 121.274 136.638 121.873C144.188 122.457 149.997 125.588 151.853 131.463C154.076 138.499 151.438 147.728 144.727 150.336C140.182 152.102 134.404 150.695 128.914 150.405Z" fill="#00425F"/>
<path d="M365.749 148.249C361.096 141.182 359.802 134.362 364.946 127.275C368.259 122.709 376.57 119.972 382.535 122.224C387.632 124.148 392.146 130.072 392.213 135.407C392.306 142.934 390.104 148.738 383.015 151.257C377.22 153.316 371.155 152.748 365.749 148.249Z" fill="#00425F"/>
<path d="M129.569 363.144C139.448 360.735 145.235 361.33 150.052 368.606C153.325 373.55 152.961 379.061 150.837 383.985C148.558 389.267 144.152 392.025 137.805 392.158C130.806 392.305 125.531 389.949 123.054 383.62C120.896 378.107 120.645 372.14 125.013 367.125C126.246 365.709 127.784 364.559 129.569 363.144Z" fill="#00425F"/>
</g>
<defs>
<clipPath id="clip0_516_3">
<rect width="512" height="512" fill="white"/>
</clipPath>
</defs>
</svg>
