<svg width="683" height="628" viewBox="0 0 683 628" fill="none" xmlns="http://www.w3.org/2000/svg">
<path d="M245.867 4.86673C243.067 7.00006 205.734 43.8001 163.067 86.6001L85.3335 164.467V171.667V179L167.334 261L249.334 343H256.134C262.134 343 263.334 342.467 266.8 338.6L270.667 334.333V281.533V228.867L393.067 229.4C475.6 229.8 517.734 230.467 522.8 231.533C555.867 238.067 582 251.4 604.934 273.4C634.267 301.533 650.134 335.933 653.2 377C654.134 390.733 654.534 392.067 658 395.667C661.2 399 662.8 399.667 668.4 399.667C673.867 399.667 675.467 399 678.934 395.667L682.934 391.667L682.4 344.6C681.867 298.733 681.867 297.267 678.134 281.667C656.934 190.733 583.067 125.4 490.4 115.667C483.467 115 432.134 114.333 374.4 114.333H270.667V62.2001V10.0667L266.134 5.53339C260.134 -0.466606 253.334 -0.733273 245.867 4.86673ZM244.4 138.733C245.6 140.733 248 142.6 249.734 143C251.334 143.267 305.467 143.8 370 144.067C500.267 144.6 498.8 144.467 526.267 153.667C578.667 171.267 621.867 211.933 640.667 261.667L643.734 269.667L628.267 254.333C600.8 227.133 573.067 212.067 534.934 203.4C522.134 200.467 520.534 200.467 388.134 200.067C287.334 199.667 253.2 199.933 250.4 201.133C248.267 201.933 245.334 204.2 244 206.067C241.467 209.133 241.334 211.667 241.334 250.867V292.333L181.334 232.333L121.333 172.333L180.934 112.6L240.667 53.0001L241.334 94.0667C241.867 130.333 242.267 135.533 244.4 138.733Z" fill="#00425F"/>
<path d="M3.7334 233L-0.266602 237L0.266732 284.067C0.800065 329.933 0.800065 331.4 4.5334 347C21.8667 421 74.5334 479.267 145.467 502.867C178.133 513.8 186.533 514.333 308.667 514.333H412V566.467V618.6L416.533 623.133C422.533 629.133 429.333 629.4 436.8 623.8C439.6 621.667 476.933 584.867 519.733 542.067L597.333 464.2V457V449.667L515.333 367.667L433.333 285.667H426.533C420.533 285.667 419.333 286.2 415.867 290.067L412 294.333V347.133V399.8L289.733 399.267C169.333 398.733 167.067 398.733 154.267 395.8C123.467 389 99.6001 376.333 77.7334 355.267C48.4001 327.133 32.5334 292.733 29.4667 251.667C28.5334 237.933 28.1334 236.6 24.6667 233C21.4667 229.667 19.8667 229 14.2667 229C8.80007 229 7.20007 229.667 3.7334 233ZM501.733 516.067L442 575.667L441.333 534.6C440.8 498.333 440.4 493.133 438.267 489.933C437.067 487.933 434.667 486.067 432.933 485.667C431.333 485.4 376.933 484.867 312 484.6C182.667 483.933 186.267 484.2 158.667 475.667C106.267 459.533 61.0667 417.4 42.0001 367L38.9334 359L54.4001 374.333C76.6667 396.333 98.1334 409.8 125.333 418.867C154.133 428.467 147.2 428.067 295.2 428.6C395.333 429 429.467 428.733 432.267 427.533C434.4 426.733 437.333 424.467 438.667 422.6C441.2 419.533 441.333 417 441.333 377.8V336.333L501.333 396.333L561.333 456.333L501.733 516.067Z" fill="#00425F"/>
</svg>
