<svg width="662" height="384" viewBox="0 0 662 384" fill="none" xmlns="http://www.w3.org/2000/svg">
<path d="M2.53346 362.133C6.13346 370 12.5335 376.667 20.2668 380.533L27.2001 384L330.667 384H634.133L641.067 380.533C648.8 376.667 655.2 370 658.8 362.133C661.2 356.933 661.333 349.2 661.333 191.867V27.2L657.867 20.2666C654 12.5333 647.333 6.13331 639.467 2.53331C634.267 0.133313 622.8 -2.00272e-05 330.667 -2.00272e-05C38.5335 -2.00272e-05 27.0668 0.133313 21.8668 2.53331C14.0001 6.13331 7.33346 12.5333 3.4668 20.2666L0.000128269 27.2V191.867C0.000128269 349.2 0.133462 356.933 2.53346 362.133ZM41.2001 260C54.2668 256.667 60.9335 254.267 62.1335 252.667C64.8001 248.933 64.8001 135.067 62.1335 131.333C60.9335 129.733 54.2668 127.333 41.2001 124L22.0001 119.067V76.5333C22.0001 29.7333 22.0001 29.7333 30.2668 24.4C33.7335 22.1333 49.3335 22 330.667 22C612 22 627.6 22.1333 631.067 24.4C633.067 25.6 635.733 28.2666 636.933 30.2666C639.2 33.7333 639.333 43.2 639.333 192C639.333 340.8 639.2 350.267 636.933 353.733C635.733 355.733 633.067 358.4 631.067 359.6C627.6 361.867 611.733 362 335.333 362.4C174.8 362.667 40.8001 362.4 37.7335 362C30.8001 361.067 24.5335 356 22.8001 350.267C22.1335 347.867 21.6001 327.733 21.7335 305.467L22.0001 264.933L41.2001 260ZM22.2668 142.667C22.9335 142.667 27.4668 143.867 32.6668 145.067L42.0001 147.467V192V236.533L32.6668 238.933C27.4668 240.133 22.9335 241.333 22.2668 241.333C21.7335 241.333 21.3335 219.067 21.3335 192C21.3335 164.8 21.7335 142.667 22.2668 142.667Z" fill="#00425F"/>
<path d="M610.667 242.667C612.4 244.4 615.067 245.333 618.667 245.333C622.267 245.333 624.933 244.4 626.667 242.667C629.2 240.133 629.333 238.267 629.333 192C629.333 145.733 629.2 143.867 626.667 141.333C624.933 139.6 622.267 138.667 618.667 138.667C615.067 138.667 612.4 139.6 610.667 141.333C608.133 143.867 608 145.733 608 192C608 238.267 608.133 240.133 610.667 242.667Z" fill="#00425F"/>
<path d="M185.4 160.8L197.64 150.48L204.6 162.84L189.96 168L204.6 172.92L197.16 185.88L185.4 175.32L188.4 190.8H174.12L177 175.32L165.36 186L157.68 172.8L172.32 167.76L157.8 162.96L164.88 150.48L177.12 160.8L174 145.2H188.52L185.4 160.8ZM270.453 150V165.6L240.573 234H218.973L249.093 167.52H212.493V150H270.453ZM278.383 218.76L300.343 197.88C304.343 194.12 307.463 191.04 309.703 188.64C312.023 186.16 313.663 183.92 314.623 181.92C315.663 179.92 316.183 177.8 316.183 175.56C316.183 172.84 315.463 170.76 314.023 169.32C312.583 167.8 310.423 167.04 307.543 167.04C305.783 167.04 304.223 167.52 302.863 168.48C301.503 169.36 300.423 170.72 299.623 172.56C298.823 174.32 298.383 176.56 298.303 179.28H278.143C278.303 172.24 279.783 166.52 282.583 162.12C285.383 157.72 289.063 154.48 293.623 152.4C298.183 150.24 303.183 149.16 308.623 149.16C315.343 149.16 320.823 150.32 325.063 152.64C329.303 154.96 332.423 158.04 334.423 161.88C336.423 165.72 337.423 169.92 337.423 174.48C337.423 178.08 336.863 181.4 335.743 184.44C334.703 187.4 332.863 190.52 330.223 193.8C327.583 197 323.863 200.8 319.063 205.2L306.703 216.48H338.863V234H278.383V218.76ZM349.298 175.44C349.538 169.6 350.898 164.76 353.378 160.92C355.858 157 359.298 154.08 363.698 152.16C368.098 150.16 373.298 149.16 379.298 149.16C385.458 149.16 390.658 150.2 394.898 152.28C399.138 154.36 402.338 157.16 404.498 160.68C406.738 164.2 407.858 168.2 407.858 172.68C407.858 176.36 407.178 179.4 405.818 181.8C404.458 184.2 402.738 186.08 400.658 187.44C398.658 188.8 396.698 189.8 394.778 190.44V190.92C397.658 191.88 400.178 193.16 402.338 194.76C404.578 196.36 406.298 198.4 407.498 200.88C408.778 203.36 409.418 206.44 409.418 210.12C409.418 215 408.258 219.32 405.938 223.08C403.698 226.76 400.418 229.64 396.098 231.72C391.778 233.8 386.578 234.84 380.498 234.84C374.338 234.84 368.858 233.96 364.058 232.2C359.258 230.44 355.458 227.52 352.658 223.44C349.938 219.36 348.498 213.88 348.338 207H368.858C368.858 210.68 369.738 213.28 371.498 214.8C373.338 216.24 376.058 216.96 379.658 216.96C381.658 216.96 383.338 216.64 384.698 216C386.058 215.28 387.098 214.28 387.818 213C388.538 211.72 388.898 210.16 388.898 208.32C388.898 204.88 387.738 202.56 385.418 201.36C383.098 200.08 379.378 199.44 374.258 199.44H370.418V183.84H374.258C376.418 183.84 378.458 183.68 380.378 183.36C382.378 182.96 384.018 182.2 385.298 181.08C386.578 179.88 387.218 178.08 387.218 175.68C387.218 172.8 386.458 170.64 384.938 169.2C383.498 167.76 381.458 167.04 378.818 167.04C376.658 167.04 374.938 167.44 373.658 168.24C372.458 168.96 371.538 169.96 370.898 171.24C370.338 172.52 370.018 173.92 369.938 175.44H349.298ZM449.6 150H469.28L465.8 166.44H485.36L488.84 150H508.64L505.16 166.44H519.68V185.4H501.08L498.2 199.2H513.2V218.28H494.12L490.88 234H471.08L474.32 218.28H454.76L451.52 234H431.84L435.08 218.28H418.04V199.2H439.16L442.04 185.4H424.52V166.44H446.12L449.6 150ZM458.84 199.2H478.4L481.28 185.4H461.72L458.84 199.2Z" fill="#00425F"/>
</svg>
